<svg width="46" height="20" viewBox="0 0 46 20" fill="none" xmlns="http://www.w3.org/2000/svg">
<path fill-rule="evenodd" clip-rule="evenodd" d="M12.9777 0.260864V14.9408C12.9818 15.8166 12.6648 16.6635 12.0865 17.3213C11.5083 17.9791 10.7089 18.402 9.83984 18.5101L4.00133e-05 19.7391V5.05918C-0.00409877 4.18338 0.312963 3.33645 0.891217 2.67869C1.46947 2.02093 2.26879 1.59796 3.1379 1.48986L12.9777 0.260864Z" fill="white"/>
<path fill-rule="evenodd" clip-rule="evenodd" d="M29.2163 0.260864V14.9408C29.2195 15.8184 28.9004 16.6667 28.3196 17.3247C27.7388 17.9826 26.9367 18.4044 26.0654 18.5101L16.2256 19.7391V5.05918C16.2224 4.18155 16.5415 3.33328 17.1223 2.67534C17.7032 2.01739 18.5053 1.59555 19.3765 1.48986L29.2163 0.260864Z" fill="white"/>
<path fill-rule="evenodd" clip-rule="evenodd" d="M45.4546 0.260864V14.9408C45.4578 15.8184 45.1387 16.6667 44.5579 17.3247C43.9771 17.9826 43.175 18.4044 42.3037 18.5101L32.4639 19.7391V5.05918C32.4598 4.18338 32.7768 3.33645 33.3551 2.67869C33.9333 2.02093 34.7327 1.59796 35.6018 1.48986L45.4546 0.260864Z" fill="white"/>
</svg>
